<?xml version="1.0" encoding="UTF-8"?>
<svg width="604px" height="602px" viewBox="0 0 604 602" version="1.1" xmlns="http://www.w3.org/2000/svg" xmlns:xlink="http://www.w3.org/1999/xlink">
    <!-- Generator: Sketch 49.3 (51167) - http://www.bohemiancoding.com/sketch -->
    <title>logo</title>
    <desc>Created with Sketch.</desc>
    <defs></defs>
    <g id="Page-1" stroke="none" stroke-width="1" fill="none" fill-rule="evenodd">
        <g id="topo" fill="#FFFFFF">
            <path d="M0,0 L604,0 L604,602 L0,602 L0,0 Z M188.696264,428.48 C248.216264,428.48 276.376264,395.2 287.896264,347.52 L238.936264,336.64 C230.616264,368.96 216.856264,386.56 189.016264,386.56 C153.176264,386.56 133.336264,355.2 133.336264,305.28 C133.336264,256.32 152.536264,225.92 188.376264,225.92 C216.216264,225.92 227.736264,244.48 235.416264,271.68 L284.696264,257.28 C274.456264,214.72 248.536264,182.72 188.696264,182.72 C128.856264,182.72 81.1762637,223.04 81.1762637,305.28 C81.1762637,388.8 126.936264,428.48 188.696264,428.48 Z M419.04,428.48 C478.56,428.48 506.72,395.2 518.24,347.52 L469.28,336.64 C460.96,368.96 447.2,386.56 419.36,386.56 C383.52,386.56 363.68,355.2 363.68,305.28 C363.68,256.32 382.88,225.92 418.72,225.92 C446.56,225.92 458.08,244.48 465.76,271.68 L515.04,257.28 C504.8,214.72 478.88,182.72 419.04,182.72 C359.2,182.72 311.52,223.04 311.52,305.28 C311.52,388.8 357.28,428.48 419.04,428.48 Z" id="logo"></path>
        </g>
    </g>
</svg>